<svg width="299" height="35" viewBox="0 0 299 35" fill="none" xmlns="http://www.w3.org/2000/svg">
<path d="M97.1976 5.06852C95.9038 4.74494 94.5777 5.32738 93.9631 6.45989L84.0654 24.483L74.1678 6.45989C73.5209 5.29502 72.1947 4.71258 70.9332 5.06852C69.6718 5.39209 68.7661 6.55696 68.7661 7.85126V31.181C68.7661 32.7665 70.0599 34.0608 71.6448 34.0608C73.2298 34.0608 74.5236 32.7665 74.5236 31.181V19.1117L81.5102 31.8929C82.0277 32.8312 82.998 33.3813 84.0331 33.3813C85.1005 33.3813 86.0709 32.7989 86.556 31.8929L93.575 19.144V31.2134C93.575 32.7989 94.8688 34.0932 96.4537 34.0932C98.0386 34.0932 99.3324 32.7989 99.3324 31.2134V7.88362C99.3648 6.55696 98.4591 5.39209 97.1976 5.06852Z" fill="white"/>
<path d="M28.4315 5.06852C27.1377 4.74494 25.8116 5.32738 25.197 6.45989L15.2993 24.483L5.40167 6.45989C4.75476 5.29502 3.4286 4.71258 2.16714 5.06852C0.905668 5.39209 0 6.55696 0 7.85126V31.181C0 32.7665 1.29381 34.0608 2.87873 34.0608C4.46365 34.0608 5.75746 32.7665 5.75746 31.181V19.1117L12.7764 31.8929C13.2939 32.8312 14.2643 33.3813 15.2993 33.3813C16.3667 33.3813 17.3371 32.7989 17.8223 31.8929L24.8412 19.144V31.2134C24.8412 32.7989 26.135 34.0932 27.7199 34.0932C29.3048 34.0932 30.5987 32.7989 30.5987 31.2134V7.88362C30.631 6.55696 29.7253 5.39209 28.4315 5.06852Z" fill="white"/>
<path d="M49.6822 34.5462C57.9302 34.5462 64.658 27.8158 64.658 19.5646C64.658 11.3135 57.9302 4.58313 49.6822 4.58313C41.4341 4.58313 34.7063 11.3135 34.7063 19.5646C34.7063 27.8158 41.4341 34.5462 49.6822 34.5462ZM49.6822 10.6663C54.5663 10.6663 58.5448 14.6463 58.5448 19.5323C58.5448 24.4183 54.5663 28.3982 49.6822 28.3982C44.798 28.3982 40.8196 24.4183 40.8196 19.5323C40.8196 14.6463 44.798 10.6663 49.6822 10.6663Z" fill="white"/>
<path d="M127.052 16.0377C122.524 15.4229 121.618 14.6786 121.554 13.6432C121.521 13.2226 121.715 12.8019 122.039 12.446C122.847 11.6047 124.465 11.087 126.405 11.087C129.963 11.087 131.807 12.2195 132.001 12.3489C133.36 13.2873 135.236 12.9637 136.206 11.637C137.176 10.278 136.885 8.36893 135.527 7.39821C135.203 7.13935 132.066 5.00375 126.405 5.00375C120.033 5.00375 115.408 8.66015 115.408 13.7079C115.408 19.7911 120.616 21.3443 126.244 22.0885C132.357 22.9298 132.228 24.7742 132.163 25.5508C132.098 26.2626 131.936 28.2041 126.308 28.2041C122.686 28.2041 119.742 26.4891 119.613 26.4244C119.128 26.1332 118.578 25.9714 117.996 25.9714C117.769 25.9714 117.543 26.0038 117.284 26.0685C116.508 26.2626 115.828 26.748 115.376 27.4275C114.502 28.8512 114.923 30.7279 116.346 31.634C116.799 31.9252 120.874 34.352 126.244 34.352C136.044 34.352 137.92 29.2071 138.179 26.1008C138.503 22.2179 136.821 17.3643 127.052 16.0377Z" fill="white"/>
<path d="M194.201 34.5462C202.449 34.5462 209.177 27.8158 209.177 19.5646C209.177 11.3135 202.449 4.58313 194.201 4.58313C185.953 4.58313 179.225 11.3135 179.225 19.5646C179.225 27.8158 185.953 34.5462 194.201 34.5462ZM194.201 10.6663C199.085 10.6663 203.064 14.6463 203.064 19.5323C203.064 24.4183 199.085 28.3982 194.201 28.3982C189.317 28.3982 185.338 24.4183 185.338 19.5323C185.338 14.6463 189.317 10.6663 194.201 10.6663Z" fill="#FDC838"/>
<path d="M263.517 13.6433C264.779 14.9052 266.946 14.9052 268.207 13.6433C268.822 13.0285 269.178 12.1872 269.178 11.2812C269.178 10.4075 268.822 9.56622 268.207 8.91907C265.393 6.10397 261.609 4.55081 257.63 4.55081C253.619 4.55081 249.867 6.10397 247.021 8.91907C241.167 14.7758 241.167 24.2889 247.021 30.1132C249.835 32.9283 253.619 34.4815 257.63 34.4815C261.641 34.4815 265.393 32.9283 268.24 30.1132C269.533 28.8189 269.533 26.7157 268.24 25.4214C266.978 24.1594 264.779 24.1594 263.549 25.4214C260.283 28.6895 255.01 28.6895 251.743 25.4214C248.477 22.1533 248.477 16.879 251.743 13.6109C254.978 10.4075 260.283 10.4075 263.517 13.6433Z" fill="#FDC838"/>
<path d="M174.956 5.39212H153.511C151.732 5.39212 150.309 6.84821 150.309 8.59551C150.309 10.3752 151.764 11.7989 153.511 11.7989H161.015V30.9869C161.015 32.7665 162.471 34.1903 164.217 34.1903C165.964 34.1903 167.419 32.7342 167.419 30.9869V11.8313H174.924C176.703 11.8313 178.126 10.3752 178.126 8.62787C178.19 6.81585 176.735 5.39212 174.956 5.39212Z" fill="#FDC838"/>
<path d="M235.15 5.03616C233.371 5.03616 231.916 6.49225 231.916 8.27191V22.218C231.916 25.2596 229.425 27.7511 226.385 27.7511H225.511C222.471 27.7511 219.98 25.2596 219.98 22.218V8.27191C219.98 6.49225 218.525 5.03616 216.746 5.03616C214.967 5.03616 213.511 6.49225 213.511 8.27191V22.218C213.511 28.8513 218.913 34.2226 225.511 34.2226H226.385C233.015 34.2226 238.385 28.8189 238.385 22.218V8.27191C238.385 6.45989 236.929 5.03616 235.15 5.03616Z" fill="#FDC838"/>
<path d="M295.765 5.03616C293.986 5.03616 292.531 6.49225 292.531 8.27191V16.426H280.337V8.27191C280.337 6.49225 278.881 5.03616 277.102 5.03616C275.323 5.03616 273.868 6.49225 273.868 8.27191V30.9869C273.868 32.7665 275.323 34.2226 277.102 34.2226C278.881 34.2226 280.337 32.7665 280.337 30.9869V22.8975H292.531V30.9869C292.531 32.7665 293.986 34.2226 295.765 34.2226C297.544 34.2226 299 32.7665 299 30.9869V8.27191C299 6.45989 297.544 5.03616 295.765 5.03616Z" fill="#FDC838"/>
<path d="M105.381 14.614C105.834 14.8405 106.319 14.9699 106.804 14.9699C107.969 14.9699 109.036 14.3228 109.554 13.2873L114.05 4.51844C114.826 2.99764 114.244 1.1209 112.723 0.344322C111.203 -0.432257 109.327 0.150178 108.551 1.67098L104.055 10.4399C103.279 11.9607 103.861 13.8374 105.381 14.614Z" fill="#FDC838"/>
</svg>
